<svg xmlns="http://www.w3.org/2000/svg" xmlns:xlink="http://www.w3.org/1999/xlink" fill="none" version="1.1" width="24" height="24" viewBox="0 0 24 24"><defs><clipPath id="master_svg0_14_242"><rect x="0" y="0" width="24" height="24" rx="0"/></clipPath></defs><g clip-path="url(#master_svg0_14_242)"><path d="M17,15.2454L17,22.116899C17,22.393,16.7761,22.617001,16.5,22.617001C16.409401000000003,22.617001,16.320498999999998,22.5923,16.242800000000003,22.5457L12,20L7.7572498,22.5457C7.5204601,22.6877,7.2133298,22.610901,7.07125,22.374201C7.0246300999999995,22.2964,7,22.2075,7,22.116899L7,15.2454C5.1710701,13.7793,4,11.5264,4,9C4,4.5817198999999995,7.5817198999999995,1,12,1C16.418301,1,20,4.5817198999999995,20,9C20,11.5264,18.828899,13.7793,17,15.2454ZM12,15C15.3137,15,18,12.3137,18,9C18,5.6862898,15.3137,3,12,3C8.6862898,3,6,5.6862898,6,9C6,12.3137,8.6862898,15,12,15ZM12,13C9.790860200000001,13,8,11.2091,8,9C8,6.7908602,9.790860200000001,5,12,5C14.2091,5,16,6.7908602,16,9C16,11.2091,14.2091,13,12,13Z" fill="#2A2A2A" fill-opacity="1" style="mix-blend-mode:passthrough"/></g></svg>