<svg xmlns="http://www.w3.org/2000/svg" xmlns:xlink="http://www.w3.org/1999/xlink" fill="none" version="1.1" width="24" height="24" viewBox="0 0 24 24"><defs><clipPath id="master_svg0_12_145"><rect x="0" y="0" width="24" height="24" rx="0"/></clipPath></defs><g clip-path="url(#master_svg0_12_145)"><path d="M12,2C17.52,2,22,6.48,22,12C22,17.52,17.52,22,12,22C6.48,22,2,17.52,2,12C2,6.48,6.48,2,12,2ZM12,20C16.426701,20,20,16.426701,20,12C20,7.5733299,16.426701,4,12,4C7.5733299,4,4,7.5733299,4,12C4,16.426701,7.5733299,20,12,20ZM12,18C8.6800003,18,6,15.32,6,12C6,8.6800003,8.6800003,6,12,6C15.32,6,18,8.6800003,18,12C18,15.32,15.32,18,12,18ZM12,10C10.8999996,10,10,10.8999996,10,12C10,13.1,10.8999996,14,12,14C13.1,14,14,13.1,14,12C14,10.8999996,13.1,10,12,10Z" fill="#FFFFFF" fill-opacity="1" style="mix-blend-mode:passthrough"/></g></svg>