<svg xmlns="http://www.w3.org/2000/svg" xmlns:xlink="http://www.w3.org/1999/xlink" fill="none" version="1.1" width="24" height="24" viewBox="0 0 24 24"><defs><clipPath id="master_svg0_14_254"><rect x="0" y="0" width="24" height="24" rx="0"/></clipPath></defs><g clip-path="url(#master_svg0_14_254)"><path d="M12,22C6.47715,22,2,17.5228,2,12C2,6.47715,6.47715,2,12,2C17.5228,2,22,6.47715,22,12C22,17.5228,17.5228,22,12,22ZM11,15L11,17L13,17L13,15L11,15ZM13,13.3551C14.4457,12.9248,15.5,11.5854998,15.5,10C15.5,8.067000400000001,13.933,6.5,12,6.5C10.302,6.5,8.8863697,7.7091899,8.567310299999999,9.3134604L10.5288,9.705769499999999C10.6655998,9.0182304,11.2722998,8.5,12,8.5C12.8284,8.5,13.5,9.1715698,13.5,10C13.5,10.8283997,12.8284,11.5,12,11.5C11.4476995,11.5,11,11.9476995,11,12.5L11,14L13,14L13,13.3551Z" fill="#2A2A2A" fill-opacity="1" style="mix-blend-mode:passthrough"/></g></svg>