<svg xmlns="http://www.w3.org/2000/svg" xmlns:xlink="http://www.w3.org/1999/xlink" fill="none" version="1.1" width="24" height="24" viewBox="0 0 24 24"><defs><clipPath id="master_svg0_14_250"><rect x="0" y="0" width="24" height="24" rx="0"/></clipPath></defs><g clip-path="url(#master_svg0_14_250)"><path d="M12,2C17.5228,2,22,6.47715,22,12L22,15.7639C22,16.5215,21.572001,17.214001,20.8944,17.552799L18,19L18,20C18,21.5977,16.751101,22.9037,15.1763,22.9949L14.9499,23.000401C14.9718,22.892599,14.9868,22.782301,14.9943,22.67L15,22.5L15,22C15,20.945601,14.1841,20.0818,13.1493,20.005501L13,20L11,20C9.9456396,20,9.08183,20.815901,9.0054903,21.8507L9,22L9,22.5C9,22.6714,9.0172501,22.838699,9.0501003,23.000401L9,23C7.3431501,23,6,21.6569,6,20L6,19L3.1055701,17.552799C2.42799997,17.214001,2,16.5215,2,15.7639L2,12C2,6.47715,6.47715,2,12,2ZM8,11C6.8954301,11,6,11.8954,6,13C6,14.1046,6.8954301,15,8,15C9.1045704,15,10,14.1046,10,13C10,11.8954,9.1045704,11,8,11ZM16,11C14.8954,11,14,11.8954,14,13C14,14.1046,14.8954,15,16,15C17.104601000000002,15,18,14.1046,18,13C18,11.8954,17.104601000000002,11,16,11Z" fill="#2A2A2A" fill-opacity="1" style="mix-blend-mode:passthrough"/></g></svg>